# xmcd CD database file
#
# Track frame offsets:
#	150
#	11925
#	23304
#	35358
#	47163
#	59114
#	73726
#	88607
#	98939
#	111085
#
# Disc length: 1662 seconds
#
# Revision: 0
# Processed by: cddbd v1.5.1PL2 Copyright (c) Steve Scherf et al.
# Submitted via: CDex 1.51
#
DISCID=83067c0a
DTITLE=Donna Fargo - All Time Greatest Hits
DYEAR=1900
DGENRE=Country
TTITLE0=The Happiest Girl In The Whole U. S. A.
TTITLE1=Superman
TTITLE2=Funny Face
TTITLE3=It Do Feel Good
TTITLE4=Little Girl Gone
TTITLE5=I'll Try A Little Harder
TTITLE6=You Were Always There
TTITLE7=Hello Little Bluebird
TTITLE8=U. S. of A.
TTITLE9=You Can't Be A Beacon (If Your Light Don't Shine)
EXTD=
EXTT0=
EXTT1=
EXTT2=
EXTT3=
EXTT4=
EXTT5=
EXTT6=
EXTT7=
EXTT8=
EXTT9=
PLAYORDER=
